<mxfile host="www.draw.io" modified="2019-10-20T05:06:02.794Z" agent="Mozilla/5.0 (Macintosh; Intel Mac OS X 10_15) AppleWebKit/605.1.15 (KHTML, like Gecko) Version/13.0.2 Safari/605.1.15" etag="cI6GPIwuJMZ3kyuwm1dK" version="12.1.3" type="github" pages="1">
  <diagram id="o5LX1uH7GXbJOEIdSkzk" name="Page-1">
    <mxGraphModel dx="816" dy="779" grid="1" gridSize="10" guides="1" tooltips="1" connect="1" arrows="1" fold="1" page="1" pageScale="1" pageWidth="1654" pageHeight="2336" math="0" shadow="0">
      <root>
        <mxCell id="0"/>
        <mxCell id="1" parent="0"/>
        <mxCell id="iks4JFSd6E9s6dJkQkNe-3" style="edgeStyle=orthogonalEdgeStyle;rounded=0;orthogonalLoop=1;jettySize=auto;html=1;" parent="1" source="iks4JFSd6E9s6dJkQkNe-1" target="iks4JFSd6E9s6dJkQkNe-2" edge="1">
          <mxGeometry relative="1" as="geometry"/>
        </mxCell>
        <mxCell id="iks4JFSd6E9s6dJkQkNe-1" value="&lt;span style=&quot;white-space: normal&quot;&gt;app启动&lt;/span&gt;" style="rounded=0;whiteSpace=wrap;html=1;" parent="1" vertex="1">
          <mxGeometry x="120" y="65" width="60" height="30" as="geometry"/>
        </mxCell>
        <mxCell id="iks4JFSd6E9s6dJkQkNe-5" style="edgeStyle=orthogonalEdgeStyle;rounded=0;orthogonalLoop=1;jettySize=auto;html=1;" parent="1" source="iks4JFSd6E9s6dJkQkNe-2" target="iks4JFSd6E9s6dJkQkNe-4" edge="1">
          <mxGeometry relative="1" as="geometry"/>
        </mxCell>
        <mxCell id="iks4JFSd6E9s6dJkQkNe-6" value="存在" style="text;html=1;resizable=0;points=[];align=center;verticalAlign=middle;labelBackgroundColor=#ffffff;" parent="iks4JFSd6E9s6dJkQkNe-5" vertex="1" connectable="0">
          <mxGeometry x="-0.0889" y="2" relative="1" as="geometry">
            <mxPoint as="offset"/>
          </mxGeometry>
        </mxCell>
        <mxCell id="iks4JFSd6E9s6dJkQkNe-8" style="edgeStyle=orthogonalEdgeStyle;rounded=0;orthogonalLoop=1;jettySize=auto;html=1;entryX=0;entryY=0.75;entryDx=0;entryDy=0;" parent="1" source="iks4JFSd6E9s6dJkQkNe-2" target="iks4JFSd6E9s6dJkQkNe-7" edge="1">
          <mxGeometry relative="1" as="geometry"/>
        </mxCell>
        <mxCell id="iks4JFSd6E9s6dJkQkNe-9" value="不存在" style="text;html=1;resizable=0;points=[];align=center;verticalAlign=middle;labelBackgroundColor=#ffffff;" parent="iks4JFSd6E9s6dJkQkNe-8" vertex="1" connectable="0">
          <mxGeometry x="-0.0222" y="-2" relative="1" as="geometry">
            <mxPoint as="offset"/>
          </mxGeometry>
        </mxCell>
        <mxCell id="iks4JFSd6E9s6dJkQkNe-2" value="&lt;span style=&quot;white-space: normal&quot;&gt;检查沙盒中 masterDatabase.sqlite是否存在&lt;/span&gt;" style="rounded=0;whiteSpace=wrap;html=1;" parent="1" vertex="1">
          <mxGeometry x="210" y="50" width="130" height="60" as="geometry"/>
        </mxCell>
        <mxCell id="iks4JFSd6E9s6dJkQkNe-4" value="赋值给MasterDP.defaultURL" style="rounded=0;whiteSpace=wrap;html=1;" parent="1" vertex="1">
          <mxGeometry x="430" y="50" width="120" height="60" as="geometry"/>
        </mxCell>
        <mxCell id="iks4JFSd6E9s6dJkQkNe-11" style="edgeStyle=orthogonalEdgeStyle;rounded=0;orthogonalLoop=1;jettySize=auto;html=1;entryX=0.5;entryY=0;entryDx=0;entryDy=0;" parent="1" source="iks4JFSd6E9s6dJkQkNe-7" target="iks4JFSd6E9s6dJkQkNe-10" edge="1">
          <mxGeometry relative="1" as="geometry"/>
        </mxCell>
        <mxCell id="iks4JFSd6E9s6dJkQkNe-7" value="将Bundle中的URL赋值给MasterDP.defaultURL" style="rounded=0;whiteSpace=wrap;html=1;" parent="1" vertex="1">
          <mxGeometry x="430" y="130" width="120" height="60" as="geometry"/>
        </mxCell>
        <mxCell id="iks4JFSd6E9s6dJkQkNe-17" value="" style="edgeStyle=orthogonalEdgeStyle;rounded=0;orthogonalLoop=1;jettySize=auto;html=1;" parent="1" source="iks4JFSd6E9s6dJkQkNe-10" target="iks4JFSd6E9s6dJkQkNe-16" edge="1">
          <mxGeometry relative="1" as="geometry"/>
        </mxCell>
        <mxCell id="iks4JFSd6E9s6dJkQkNe-10" value="&lt;span style=&quot;white-space: normal&quot;&gt;异步检查更新&lt;/span&gt;" style="rounded=0;whiteSpace=wrap;html=1;" parent="1" vertex="1">
          <mxGeometry x="445" y="210" width="90" height="30" as="geometry"/>
        </mxCell>
        <mxCell id="iks4JFSd6E9s6dJkQkNe-27" style="edgeStyle=orthogonalEdgeStyle;rounded=0;orthogonalLoop=1;jettySize=auto;html=1;entryX=0.5;entryY=0;entryDx=0;entryDy=0;" parent="1" source="iks4JFSd6E9s6dJkQkNe-16" target="iks4JFSd6E9s6dJkQkNe-20" edge="1">
          <mxGeometry relative="1" as="geometry"/>
        </mxCell>
        <mxCell id="iks4JFSd6E9s6dJkQkNe-16" value="提示是否更新" style="rounded=0;whiteSpace=wrap;html=1;" parent="1" vertex="1">
          <mxGeometry x="445" y="265" width="90" height="30" as="geometry"/>
        </mxCell>
        <mxCell id="iks4JFSd6E9s6dJkQkNe-23" value="超时" style="edgeStyle=orthogonalEdgeStyle;rounded=0;orthogonalLoop=1;jettySize=auto;html=1;" parent="1" source="iks4JFSd6E9s6dJkQkNe-20" target="iks4JFSd6E9s6dJkQkNe-22" edge="1">
          <mxGeometry relative="1" as="geometry"/>
        </mxCell>
        <mxCell id="iks4JFSd6E9s6dJkQkNe-25" value="" style="edgeStyle=orthogonalEdgeStyle;rounded=0;orthogonalLoop=1;jettySize=auto;html=1;" parent="1" source="iks4JFSd6E9s6dJkQkNe-20" target="iks4JFSd6E9s6dJkQkNe-24" edge="1">
          <mxGeometry relative="1" as="geometry"/>
        </mxCell>
        <mxCell id="iks4JFSd6E9s6dJkQkNe-26" value="成功" style="text;html=1;resizable=0;points=[];align=center;verticalAlign=middle;labelBackgroundColor=#ffffff;" parent="iks4JFSd6E9s6dJkQkNe-25" vertex="1" connectable="0">
          <mxGeometry x="-0.1" y="1" relative="1" as="geometry">
            <mxPoint as="offset"/>
          </mxGeometry>
        </mxCell>
        <mxCell id="iks4JFSd6E9s6dJkQkNe-20" value="HUD提示进度" style="rounded=0;whiteSpace=wrap;html=1;" parent="1" vertex="1">
          <mxGeometry x="445" y="320" width="90" height="30" as="geometry"/>
        </mxCell>
        <mxCell id="iks4JFSd6E9s6dJkQkNe-28" style="edgeStyle=orthogonalEdgeStyle;rounded=0;orthogonalLoop=1;jettySize=auto;html=1;" parent="1" source="iks4JFSd6E9s6dJkQkNe-24" target="iks4JFSd6E9s6dJkQkNe-2" edge="1">
          <mxGeometry relative="1" as="geometry"/>
        </mxCell>
        <mxCell id="iks4JFSd6E9s6dJkQkNe-30" value="" style="edgeStyle=orthogonalEdgeStyle;rounded=0;orthogonalLoop=1;jettySize=auto;html=1;" parent="1" source="iks4JFSd6E9s6dJkQkNe-24" target="iks4JFSd6E9s6dJkQkNe-29" edge="1">
          <mxGeometry relative="1" as="geometry"/>
        </mxCell>
        <mxCell id="iks4JFSd6E9s6dJkQkNe-24" value="MasterDataSource&lt;br&gt;DidChange" style="rounded=0;whiteSpace=wrap;html=1;" parent="1" vertex="1">
          <mxGeometry x="433.5" y="390" width="113" height="40" as="geometry"/>
        </mxCell>
        <mxCell id="iks4JFSd6E9s6dJkQkNe-29" value="接收通知重新生成MasterDataDP reolad" style="rounded=0;whiteSpace=wrap;html=1;" parent="1" vertex="1">
          <mxGeometry x="582.5" y="390" width="125" height="40" as="geometry"/>
        </mxCell>
        <mxCell id="iks4JFSd6E9s6dJkQkNe-22" value="失败" style="rounded=0;whiteSpace=wrap;html=1;" parent="1" vertex="1">
          <mxGeometry x="600" y="320" width="90" height="30" as="geometry"/>
        </mxCell>
        <mxCell id="iks4JFSd6E9s6dJkQkNe-33" value="" style="edgeStyle=orthogonalEdgeStyle;rounded=0;orthogonalLoop=1;jettySize=auto;html=1;" parent="1" source="iks4JFSd6E9s6dJkQkNe-31" target="iks4JFSd6E9s6dJkQkNe-32" edge="1">
          <mxGeometry relative="1" as="geometry"/>
        </mxCell>
        <mxCell id="iks4JFSd6E9s6dJkQkNe-31" value="设置" style="rounded=0;whiteSpace=wrap;html=1;" parent="1" vertex="1">
          <mxGeometry x="120" y="465" width="50" height="30" as="geometry"/>
        </mxCell>
        <mxCell id="iks4JFSd6E9s6dJkQkNe-34" style="edgeStyle=orthogonalEdgeStyle;rounded=0;orthogonalLoop=1;jettySize=auto;html=1;entryX=0;entryY=0.5;entryDx=0;entryDy=0;" parent="1" source="iks4JFSd6E9s6dJkQkNe-32" target="iks4JFSd6E9s6dJkQkNe-10" edge="1">
          <mxGeometry relative="1" as="geometry"/>
        </mxCell>
        <mxCell id="iks4JFSd6E9s6dJkQkNe-35" value="同步" style="text;html=1;resizable=0;points=[];align=center;verticalAlign=middle;labelBackgroundColor=#ffffff;" parent="iks4JFSd6E9s6dJkQkNe-34" vertex="1" connectable="0">
          <mxGeometry x="0.0615" relative="1" as="geometry">
            <mxPoint as="offset"/>
          </mxGeometry>
        </mxCell>
        <mxCell id="iks4JFSd6E9s6dJkQkNe-32" value="点击更新数据库" style="rounded=0;whiteSpace=wrap;html=1;" parent="1" vertex="1">
          <mxGeometry x="210" y="465" width="100" height="30" as="geometry"/>
        </mxCell>
        <mxCell id="iks4JFSd6E9s6dJkQkNe-36" value="close()" style="text;html=1;strokeColor=none;fillColor=none;align=center;verticalAlign=middle;whiteSpace=wrap;rounded=0;" parent="1" vertex="1">
          <mxGeometry x="620" y="370" width="40" height="20" as="geometry"/>
        </mxCell>
        <mxCell id="rA3xPGXP7Z3CFjQe9eRh-3" value="" style="edgeStyle=orthogonalEdgeStyle;rounded=0;orthogonalLoop=1;jettySize=auto;html=1;" parent="1" source="rA3xPGXP7Z3CFjQe9eRh-1" target="rA3xPGXP7Z3CFjQe9eRh-2" edge="1">
          <mxGeometry relative="1" as="geometry"/>
        </mxCell>
        <mxCell id="rA3xPGXP7Z3CFjQe9eRh-4" value="viewDidLoad" style="text;html=1;resizable=0;points=[];align=center;verticalAlign=middle;labelBackgroundColor=#ffffff;" parent="rA3xPGXP7Z3CFjQe9eRh-3" vertex="1" connectable="0">
          <mxGeometry x="-0.225" y="-2" relative="1" as="geometry">
            <mxPoint x="11" y="-7" as="offset"/>
          </mxGeometry>
        </mxCell>
        <mxCell id="rA3xPGXP7Z3CFjQe9eRh-9" style="edgeStyle=orthogonalEdgeStyle;rounded=0;orthogonalLoop=1;jettySize=auto;html=1;entryX=0;entryY=0.5;entryDx=0;entryDy=0;" parent="1" source="rA3xPGXP7Z3CFjQe9eRh-1" target="rA3xPGXP7Z3CFjQe9eRh-8" edge="1">
          <mxGeometry relative="1" as="geometry"/>
        </mxCell>
        <mxCell id="rA3xPGXP7Z3CFjQe9eRh-17" style="edgeStyle=orthogonalEdgeStyle;rounded=0;orthogonalLoop=1;jettySize=auto;html=1;entryX=0;entryY=0.5;entryDx=0;entryDy=0;" parent="1" source="rA3xPGXP7Z3CFjQe9eRh-1" target="rA3xPGXP7Z3CFjQe9eRh-16" edge="1">
          <mxGeometry relative="1" as="geometry"/>
        </mxCell>
        <mxCell id="rA3xPGXP7Z3CFjQe9eRh-1" value="英灵图鉴" style="rounded=0;whiteSpace=wrap;html=1;" parent="1" vertex="1">
          <mxGeometry x="320" y="850" width="60" height="35" as="geometry"/>
        </mxCell>
        <mxCell id="rA3xPGXP7Z3CFjQe9eRh-6" style="edgeStyle=orthogonalEdgeStyle;rounded=0;orthogonalLoop=1;jettySize=auto;html=1;" parent="1" source="rA3xPGXP7Z3CFjQe9eRh-2" target="rA3xPGXP7Z3CFjQe9eRh-5" edge="1">
          <mxGeometry relative="1" as="geometry"/>
        </mxCell>
        <mxCell id="rA3xPGXP7Z3CFjQe9eRh-2" value="历史查询的Servant" style="rounded=0;whiteSpace=wrap;html=1;" parent="1" vertex="1">
          <mxGeometry x="490" y="850" width="130" height="30" as="geometry"/>
        </mxCell>
        <mxCell id="rA3xPGXP7Z3CFjQe9eRh-14" style="edgeStyle=orthogonalEdgeStyle;rounded=0;orthogonalLoop=1;jettySize=auto;html=1;" parent="1" source="rA3xPGXP7Z3CFjQe9eRh-5" target="rA3xPGXP7Z3CFjQe9eRh-13" edge="1">
          <mxGeometry relative="1" as="geometry"/>
        </mxCell>
        <mxCell id="rA3xPGXP7Z3CFjQe9eRh-5" value="获取&lt;br&gt;排序(稀有度/ID asc/desc)&lt;br&gt;" style="rounded=0;whiteSpace=wrap;html=1;" parent="1" vertex="1">
          <mxGeometry x="662" y="840" width="169" height="50" as="geometry"/>
        </mxCell>
        <mxCell id="rA3xPGXP7Z3CFjQe9eRh-15" style="edgeStyle=orthogonalEdgeStyle;rounded=0;orthogonalLoop=1;jettySize=auto;html=1;entryX=0;entryY=0.5;entryDx=0;entryDy=0;" parent="1" source="rA3xPGXP7Z3CFjQe9eRh-8" target="rA3xPGXP7Z3CFjQe9eRh-13" edge="1">
          <mxGeometry relative="1" as="geometry"/>
        </mxCell>
        <mxCell id="rA3xPGXP7Z3CFjQe9eRh-8" value="高级筛选" style="rounded=0;whiteSpace=wrap;html=1;" parent="1" vertex="1">
          <mxGeometry x="370" y="895" width="60" height="30" as="geometry"/>
        </mxCell>
        <mxCell id="rA3xPGXP7Z3CFjQe9eRh-10" value="数据库URL" style="text;html=1;strokeColor=none;fillColor=none;align=center;verticalAlign=middle;whiteSpace=wrap;rounded=0;" parent="1" vertex="1">
          <mxGeometry x="115" y="520" width="70" height="20" as="geometry"/>
        </mxCell>
        <mxCell id="rA3xPGXP7Z3CFjQe9eRh-13" value="请求数据" style="rounded=0;whiteSpace=wrap;html=1;" parent="1" vertex="1">
          <mxGeometry x="870" y="895" width="60" height="30" as="geometry"/>
        </mxCell>
        <mxCell id="rA3xPGXP7Z3CFjQe9eRh-20" style="edgeStyle=orthogonalEdgeStyle;rounded=0;orthogonalLoop=1;jettySize=auto;html=1;entryX=0;entryY=0.5;entryDx=0;entryDy=0;" parent="1" source="rA3xPGXP7Z3CFjQe9eRh-16" target="rA3xPGXP7Z3CFjQe9eRh-18" edge="1">
          <mxGeometry relative="1" as="geometry"/>
        </mxCell>
        <mxCell id="rA3xPGXP7Z3CFjQe9eRh-16" value="选择Servant" style="rounded=0;whiteSpace=wrap;html=1;" parent="1" vertex="1">
          <mxGeometry x="370" y="945" width="80" height="30" as="geometry"/>
        </mxCell>
        <mxCell id="dXRhFA17PrifjodiZj7F-5" style="edgeStyle=orthogonalEdgeStyle;rounded=0;orthogonalLoop=1;jettySize=auto;html=1;" edge="1" parent="1" source="rA3xPGXP7Z3CFjQe9eRh-18" target="dXRhFA17PrifjodiZj7F-3">
          <mxGeometry relative="1" as="geometry"/>
        </mxCell>
        <mxCell id="rA3xPGXP7Z3CFjQe9eRh-18" value="英灵详情" style="rounded=0;whiteSpace=wrap;html=1;" parent="1" vertex="1">
          <mxGeometry x="495" y="945" width="60" height="30" as="geometry"/>
        </mxCell>
        <mxCell id="dXRhFA17PrifjodiZj7F-1" value="规划页面" style="rounded=0;whiteSpace=wrap;html=1;" vertex="1" parent="1">
          <mxGeometry x="590" y="1015" width="60" height="35" as="geometry"/>
        </mxCell>
        <mxCell id="dXRhFA17PrifjodiZj7F-2" value="limit与skill联动" style="text;html=1;strokeColor=none;fillColor=none;align=center;verticalAlign=middle;whiteSpace=wrap;rounded=0;" vertex="1" parent="1">
          <mxGeometry x="590" y="1055" width="60" height="20" as="geometry"/>
        </mxCell>
        <mxCell id="dXRhFA17PrifjodiZj7F-8" style="edgeStyle=orthogonalEdgeStyle;rounded=0;orthogonalLoop=1;jettySize=auto;html=1;entryX=0.5;entryY=0;entryDx=0;entryDy=0;" edge="1" parent="1" source="dXRhFA17PrifjodiZj7F-3" target="dXRhFA17PrifjodiZj7F-1">
          <mxGeometry relative="1" as="geometry"/>
        </mxCell>
        <mxCell id="dXRhFA17PrifjodiZj7F-3" value="点击规划" style="rounded=0;whiteSpace=wrap;html=1;" vertex="1" parent="1">
          <mxGeometry x="590" y="945" width="60" height="30" as="geometry"/>
        </mxCell>
        <mxCell id="dXRhFA17PrifjodiZj7F-11" value="" style="edgeStyle=orthogonalEdgeStyle;rounded=0;orthogonalLoop=1;jettySize=auto;html=1;" edge="1" parent="1" source="dXRhFA17PrifjodiZj7F-9" target="dXRhFA17PrifjodiZj7F-10">
          <mxGeometry relative="1" as="geometry"/>
        </mxCell>
        <mxCell id="dXRhFA17PrifjodiZj7F-9" value="Servant规划" style="rounded=0;whiteSpace=wrap;html=1;" vertex="1" parent="1">
          <mxGeometry x="120" y="1140" width="80" height="35" as="geometry"/>
        </mxCell>
        <mxCell id="dXRhFA17PrifjodiZj7F-15" style="edgeStyle=orthogonalEdgeStyle;rounded=0;orthogonalLoop=1;jettySize=auto;html=1;" edge="1" parent="1" source="dXRhFA17PrifjodiZj7F-10" target="dXRhFA17PrifjodiZj7F-14">
          <mxGeometry relative="1" as="geometry"/>
        </mxCell>
        <mxCell id="dXRhFA17PrifjodiZj7F-10" value="添加规划" style="rounded=0;whiteSpace=wrap;html=1;" vertex="1" parent="1">
          <mxGeometry x="250" y="1140" width="80" height="35" as="geometry"/>
        </mxCell>
        <mxCell id="dXRhFA17PrifjodiZj7F-18" style="edgeStyle=orthogonalEdgeStyle;rounded=0;orthogonalLoop=1;jettySize=auto;html=1;" edge="1" parent="1" source="dXRhFA17PrifjodiZj7F-14" target="dXRhFA17PrifjodiZj7F-16">
          <mxGeometry relative="1" as="geometry"/>
        </mxCell>
        <mxCell id="dXRhFA17PrifjodiZj7F-14" value="英灵图鉴" style="rounded=0;whiteSpace=wrap;html=1;" vertex="1" parent="1">
          <mxGeometry x="373.5" y="1140" width="60" height="35" as="geometry"/>
        </mxCell>
        <mxCell id="dXRhFA17PrifjodiZj7F-19" style="edgeStyle=orthogonalEdgeStyle;rounded=0;orthogonalLoop=1;jettySize=auto;html=1;entryX=0;entryY=0.5;entryDx=0;entryDy=0;" edge="1" parent="1" source="dXRhFA17PrifjodiZj7F-16" target="dXRhFA17PrifjodiZj7F-1">
          <mxGeometry relative="1" as="geometry"/>
        </mxCell>
        <mxCell id="dXRhFA17PrifjodiZj7F-16" value="选择Servant规划" style="rounded=0;whiteSpace=wrap;html=1;" vertex="1" parent="1">
          <mxGeometry x="470" y="1140" width="80" height="35" as="geometry"/>
        </mxCell>
        <mxCell id="dXRhFA17PrifjodiZj7F-23" value="" style="edgeStyle=orthogonalEdgeStyle;rounded=0;orthogonalLoop=1;jettySize=auto;html=1;" edge="1" parent="1" source="dXRhFA17PrifjodiZj7F-20" target="dXRhFA17PrifjodiZj7F-22">
          <mxGeometry relative="1" as="geometry"/>
        </mxCell>
        <mxCell id="dXRhFA17PrifjodiZj7F-20" value="首页" style="rounded=0;whiteSpace=wrap;html=1;" vertex="1" parent="1">
          <mxGeometry x="120" y="570" width="60" height="35" as="geometry"/>
        </mxCell>
        <mxCell id="dXRhFA17PrifjodiZj7F-27" style="edgeStyle=orthogonalEdgeStyle;rounded=0;orthogonalLoop=1;jettySize=auto;html=1;entryX=0.5;entryY=0;entryDx=0;entryDy=0;" edge="1" parent="1" source="dXRhFA17PrifjodiZj7F-22" target="rA3xPGXP7Z3CFjQe9eRh-18">
          <mxGeometry relative="1" as="geometry"/>
        </mxCell>
        <mxCell id="dXRhFA17PrifjodiZj7F-22" value="新增从者" style="rounded=0;whiteSpace=wrap;html=1;" vertex="1" parent="1">
          <mxGeometry x="210" y="570" width="70" height="35" as="geometry"/>
        </mxCell>
        <mxCell id="dXRhFA17PrifjodiZj7F-21" style="edgeStyle=orthogonalEdgeStyle;rounded=0;orthogonalLoop=1;jettySize=auto;html=1;exitX=0.5;exitY=1;exitDx=0;exitDy=0;" edge="1" parent="1" source="rA3xPGXP7Z3CFjQe9eRh-10" target="rA3xPGXP7Z3CFjQe9eRh-10">
          <mxGeometry relative="1" as="geometry"/>
        </mxCell>
      </root>
    </mxGraphModel>
  </diagram>
</mxfile>
